<svg width="107" height="37" fill="none" xmlns="http://www.w3.org/2000/svg"><path d="M21.628 17.487c.56 1.413.933 3.04.8 4.906-.214 3.414-2.107 5.787-4.054 7.467-.08.08-.293.187-.24.347.907.293 1.92.453 2.827.746 3.573-1.84 6.16-8.213 3.6-12.88-1.013-.24-1.973-.48-2.987-.72.027.054 0 .134.054.134Zm-9.334-6.64c-.72 2.293-.8 5.386.507 7.493.987.24 1.973.507 2.987.747-.587-1.467-.987-3.12-.88-5.04.24-3.414 2.133-5.787 4.053-7.494.08-.08.32-.186.267-.346-.934-.267-1.947-.48-2.88-.747-1.814 1.2-3.28 2.96-4.054 5.387ZM17.948.02a18.786 18.786 0 0 1 13.626 4.933c2.987 2.747 5.734 7.04 5.84 12.534.107 6.026-2.026 10.106-5.066 13.28-2.907 3.04-7.28 5.493-12.854 5.68-5.92.186-10.506-2.027-13.626-4.934C2.64 28.5.348 24.633.028 18.98-.292 13.14 2.214 8.767 5.04 5.753c2.133-2.266 5.067-4.16 8.747-5.12C15.094.287 16.534.1 17.948.02ZM52.188 12.9v2.187c-.987-.827-4.774-1.414-4.934.453-.08.96.907 1.333 1.84 1.653 1.84.64 3.92 1.334 3.654 3.894-.32 2.933-5.094 3.573-8.054 2.346v-2.32c.213.107.8.534 1.307.72 1.413.48 4.4.667 4.16-1.28-.027-.346-.534-.746-.827-.906-1.227-.694-3.067-.88-4-1.947-1.12-1.28-.72-3.227.347-4.133 1.573-1.28 4.267-1.387 6.507-.667ZM56.748 19.593c-.587 1.04.053 2.027.72 2.32 1.733.747 3.6-.453 3.68-2.346.026-.373 0-1.2-.027-1.2 0 0-.907.133-1.36.16-1.253.107-2.56.213-3.013 1.066Zm6.907 4.134h-2.507c0-.56-.027-1.2-.027-1.733-.587.88-1.467 1.84-2.907 1.973-2.266.24-4.106-.854-4.133-3.147-.027-1.813.88-2.773 2.16-3.306 1.36-.534 3.173-.587 4.907-.827.053-1.734-.88-2.534-2.854-2.374-1.44.134-2.48.907-3.093 1.28 0-.666-.026-1.386-.026-2.08 1.653-1.253 5.68-1.546 7.306-.16.907.774 1.2 2.107 1.2 3.627 0 2.4-.026 6.747-.026 6.747ZM88.135 15.033c.88-1.013 2.053-2.4 3.893-2.586 2.133-.214 3.44.933 3.333 3.04-.026.8-.267 1.76-.453 2.613-.427 1.973-.72 3.413-1.227 5.653h-2.666c.373-1.92.853-3.946 1.28-5.973.32-1.413.746-3.76-1.494-3.227-1.386.32-2.693 1.974-3.12 3.68-.48 1.814-.826 3.76-1.173 5.52H83.84c.4-1.92.827-4 1.28-6.08.267-1.2.72-2.986-.72-3.2-.32-.053-.746.054-1.013.16-1.334.534-2.48 2.027-2.88 3.734-.427 1.76-.827 3.706-1.173 5.386h-2.72c.746-3.706 1.733-7.2 2.32-11.066h2.613c-.053.8-.213 1.52-.294 2.293.8-.853 1.947-2.347 3.707-2.56 1.947-.187 3.067.773 3.174 2.613ZM68.162 19.593a1.635 1.635 0 0 0 .693 2.32c1.733.747 3.6-.453 3.707-2.346.026-.373 0-1.2-.027-1.2 0 0-.88.133-1.36.16-1.253.107-2.533.213-3.013 1.066Zm6.906 4.134h-2.506v-1.733c-.587.88-1.494 1.84-2.934 1.973-2.266.24-4.106-.854-4.133-3.147-.027-1.813.88-2.773 2.16-3.306 1.36-.534 3.173-.587 4.907-.827.053-1.734-.88-2.534-2.854-2.374-1.44.134-2.48.907-3.093 1.28 0-.666-.027-1.386-.027-2.08 1.68-1.253 5.707-1.546 7.307-.16.907.774 1.2 2.107 1.2 3.627 0 2.4-.027 6.747-.027 6.747ZM99.175 19.593a1.623 1.623 0 0 0 .72 2.32c1.733.747 3.573-.453 3.68-2.346 0-.373-.027-1.2-.027-1.2s-.907.133-1.387.16c-1.226.107-2.506.213-2.986 1.066Zm6.933 4.134h-2.507c0-.56-.026-1.2-.026-1.733-.56.88-1.467 1.84-2.907 1.973-2.267.24-4.133-.854-4.16-3.147-.027-1.813.853-2.773 2.16-3.306 1.36-.534 3.173-.587 4.933-.827.054-1.734-.88-2.534-2.853-2.374-1.44.134-2.48.907-3.093 1.28 0-.666-.027-1.386-.027-2.08 1.653-1.253 5.68-1.546 7.307-.16.906.774 1.2 2.107 1.2 3.627-.027 2.4-.027 6.747-.027 6.747Z" fill="#fff"></path></svg>
